<mxfile host="app.diagrams.net" modified="2023-08-24T00:05:37.254Z" agent="Mozilla/5.0 (Windows NT 10.0; Win64; x64) AppleWebKit/537.36 (KHTML, like Gecko) Chrome/115.0.0.0 Safari/537.36" version="21.6.9" etag="-8kk9xvvQaXS4ndsysEO" type="github">
  <diagram name="PÃ¡gina-1" id="uoZ7bd6d_cLNjjx5XmVU">
    <mxGraphModel>
      <root>
        <mxCell id="0" />
        <mxCell id="1" parent="0" />
      </root>
    </mxGraphModel>
  </diagram>
</mxfile>
